Coordinates
version=1
nRows=18
nColumns=28
inDegrees=yes

Units are S.I. units (second, meters, Newtons, ...)
Angles are in degrees.

endheader
time	pelvis_tilt	pelvis_list	pelvis_rotation	pelvis_tx	pelvis_ty	pelvis_tz	hip_flexion_r	hip_adduction_r	hip_rotation_r	knee_angle_r	ankle_angle_r	subtalar_angle_r	mtp_angle_r	hip_flexion_l	hip_adduction_l	hip_rotation_l	knee_angle_l	socket_flexion	socket_adduction	socket_rotation	socket_tx	socket_ty	socket_tz	foot_flex	lumbar_extension	lumbar_bending	lumbar_rotation
      0.54166667	     -0.52877776	     -3.75335714	     12.36631093	      0.01128526	      0.96405484	      0.24783291	     25.89821147	      0.93106224	     -7.07251661	    -11.12204315	      5.33139593	    -20.26948976	     -8.71983803	    -17.11748465	     -5.41517538	     12.96241709	    -11.28136764	      0.00000000	      0.00000000	      0.00000000	      0.00000000	     -0.00449443	      0.00000000	      9.14415045	     -6.44480285	      3.24013435	    -18.24754773
      0.54583333	     -0.49671340	     -3.87393517	     12.39993745	      0.01773029	      0.96261780	      0.24791411	     26.32072050	      1.06963564	     -7.19670964	    -12.27427943	      4.81871079	    -20.36713592	     -8.49498593	    -17.45897847	     -5.61690906	     12.88928712	    -11.42417475	      0.00000000	      0.00000000	      0.00000000	      0.00000000	     -0.00446725	      0.00000000	      9.19128120	     -6.45816606	      3.45734805	    -18.40854077
      0.55000000	     -0.47090999	     -3.96197476	     12.41247382	      0.02415856	      0.96124706	      0.24802895	     26.72734499	      1.19530578	     -7.20337535	    -13.41780458	      4.32058574	    -20.41990772	     -8.30422013	    -17.76448212	     -5.76575313	     12.84726903	    -11.63587268	      0.00000000	      0.00000000	      0.00000000	      0.00000000	     -0.00436899	      0.00000000	      9.22413905	     -6.45978665	      3.65173648	    -18.49237622
      0.55416667	     -0.98017116	     -3.94824228	     12.27383580	      0.03052441	      0.95903657	      0.24851055	     27.83711303	      1.13995900	     -7.07065021	    -14.80557708	      3.22659653	    -21.06626554	     -5.06112824	    -17.45285870	     -5.65169139	     12.75254899	    -11.99822950	      0.00000000	      0.00000000	      0.00000000	      0.00000000	     -0.00434296	      0.00000000	      9.27164042	     -5.85663869	      3.56897591	    -18.32491750
      0.55833333	     -0.87363702	     -4.04745682	     12.27686951	      0.03699841	      0.95782109	      0.24872713	     28.11577457	      1.31647010	     -7.03124986	    -15.90212377	      2.74387538	    -21.03580992	     -5.01734766	    -17.80261748	     -5.82029260	     12.71896920	    -12.27654812	      0.00000000	      0.00000000	      0.00000000	      0.00000000	     -0.00424270	      0.00000000	      9.27011779	     -5.95886913	      3.80519765	    -18.40624967
      0.56250000	     -0.80583363	     -4.14602265	     12.24679546	      0.04348133	      0.95654180	      0.24896886	     28.47054389	      1.48223217	     -6.98929345	    -17.07613072	      2.22732711	    -21.02102833	     -4.95434621	    -18.08389045	     -5.96034685	     12.60417834	    -12.60976316	      0.00000000	      0.00000000	      0.00000000	      0.00000000	     -0.00416113	      0.00000000	      9.24238272	     -6.04888233	      4.02363686	    -18.45877427
      0.56666667	     -1.20189683	     -4.10359786	     11.88522102	      0.04987748	      0.95459022	      0.24988607	     29.45051262	      1.58221876	     -6.52268052	    -18.47434328	      1.41185090	    -21.45779255	     -3.81803479	    -17.84191771	     -5.75205205	     12.24140371	    -13.13119105	      0.00000000	      0.00000000	      0.00000000	      0.00000000	     -0.00401157	      0.00000000	      9.18451078	     -5.58982896	      3.83706855	    -18.09232522
      0.57083333	     -1.12616999	     -4.23331522	     11.87400501	      0.05638419	      0.95342306	      0.25014619	     29.74153654	      1.78869780	     -6.47169569	    -19.56313170	      0.94762184	    -21.45218569	     -3.73579652	    -18.03789876	     -5.91175200	     12.18923664	    -13.61335138	      0.00000000	      0.00000000	      0.00000000	      0.00000000	     -0.00395155	      0.00000000	      9.09158835	     -5.67367071	      4.11823573	    -18.14598261
      0.57500000	     -1.01003919	     -4.34745946	     11.96360667	      0.06308645	      0.95260867	      0.25034797	     29.77238610	      2.00517848	     -6.28316132	    -20.30602639	      0.71098108	    -21.39650680	     -3.70858644	    -18.20905082	     -6.08902275	     12.22091886	    -14.18476421	      0.00000000	      0.00000000	      0.00000000	      0.00000000	     -0.00359013	      0.00000000	      8.94698532	     -5.56390715	      4.19151449	    -18.15877779
      0.57916667	     -1.03158259	     -4.47169771	     11.73939896	      0.06936414	      0.95114536	      0.25098133	     30.38992174	      2.23627178	     -6.24038230	    -21.76487237	      0.06294869	    -21.40702717	     -3.61455661	    -18.24465670	     -6.13994390	     11.93776454	    -14.81280017	      0.00000000	      0.00000000	      0.00000000	      0.00000000	     -0.00377255	      0.00000000	      8.81542725	     -5.81055760	      4.58096284	    -18.19382642
      0.58333333	     -1.76935215	     -4.42768311	     11.26703287	      0.07579139	      0.94886909	      0.25225419	     31.69776038	      2.39986570	     -5.46147465	    -23.12816646	     -0.77493468	    -22.26781787	     -2.46876485	    -17.45566067	     -5.80929374	     11.57433829	    -15.66146912	      0.00000000	      0.00000000	      0.00000000	      0.00000000	     -0.00361716	      0.00000000	      8.70804549	     -4.91362439	      4.30290761	    -17.62533776
      0.58750000	     -1.66083972	     -4.57411977	     11.26852388	      0.08230374	      0.94804301	      0.25259902	     31.83007959	      2.66378969	     -5.30488073	    -24.04220706	     -1.08259011	    -22.21212246	     -2.41400633	    -17.48331509	     -5.96064896	     11.50662135	    -16.45504570	      0.00000000	      0.00000000	      0.00000000	      0.00000000	     -0.00350441	      0.00000000	      8.39806671	     -5.03717211	      4.57922658	    -17.66984763
      0.59166667	     -1.59147679	     -4.72512060	     11.15369373	      0.08883879	      0.94714291	      0.25313808	     32.06253457	      2.95415155	     -5.20071346	    -25.04641640	     -1.41043157	    -22.20011868	     -2.34055570	    -17.44508006	     -6.06677869	     11.32533596	    -17.32405999	      0.00000000	      0.00000000	      0.00000000	      0.00000000	     -0.00334447	      0.00000000	      8.13476540	     -5.14776313	      4.83965865	    -17.69676175
      0.59583333	     -1.56997650	     -4.87232926	     11.02653142	      0.09542877	      0.94621810	      0.25369467	     32.31814715	      3.24942023	     -5.02827168	    -26.02859913	     -1.69246790	    -22.23297024	     -2.23557506	    -17.31649342	     -6.15173440	     11.10440210	    -18.26003888	      0.00000000	      0.00000000	      0.00000000	      0.00000000	     -0.00318530	      0.00000000	      7.84115348	     -5.15217671	      5.03922005	    -17.67948099
      0.60000000	     -2.17255993	     -4.92637092	     10.60970624	      0.10195310	      0.94439647	      0.25493732	     33.32398019	      3.56101079	     -4.33003402	    -27.16883118	     -2.15064397	    -22.84340444	     -1.61302503	    -16.46242314	     -5.95380031	     10.71802260	    -19.39101385	      0.00000000	      0.00000000	      0.00000000	      0.00000000	     -0.00301278	      0.00000000	      7.51891127	     -4.41928610	      4.96714673	    -17.25009139
      0.60416667	     -2.04937363	     -5.09731172	     10.57857049	      0.10851230	      0.94388248	      0.25542095	     33.35408487	      3.87029366	     -4.24216855	    -27.96849897	     -2.29653212	    -22.84716142	     -1.55262713	    -16.29679481	     -6.09837609	     10.56830011	    -20.49704726	      0.00000000	      0.00000000	      0.00000000	      0.00000000	     -0.00267718	      0.00000000	      7.11153086	     -4.54445424	      5.22137660	    -17.26356826
      0.60833333	     -1.97298432	     -5.28488719	     10.49154436	      0.11504310	      0.94328626	      0.25596726	     33.44074504	      4.20922313	     -4.14790577	    -28.77937489	     -2.39159149	    -22.87654270	     -1.48261729	    -16.02159050	     -6.23087837	     10.32715853	    -21.71015772	      0.00000000	      0.00000000	      0.00000000	      0.00000000	     -0.00241113	      0.00000000	      6.66566573	     -4.67476870	      5.50976294	    -17.26571590
      0.61250000	     -1.81546137	     -5.45533992	     10.48943303	      0.12169834	      0.94292014	      0.25639164	     33.35374354	      4.52783531	     -4.02096720	    -29.49238647	     -2.44907563	    -22.86855982	     -1.43968667	    -15.80949815	     -6.38821744	     10.12090680	    -22.91990385	      0.00000000	      0.00000000	      0.00000000	      0.00000000	     -0.00205247	      0.00000000	      6.17306949	     -4.65253844	      5.67947787	    -17.26036798
